<svg width="28" height="23" viewBox="0 0 28 23" fill="none" xmlns="http://www.w3.org/2000/svg">
<path d="M24.6875 6.02979V3.34229L14 10.0298L3.3125 3.34229V6.02979L14 12.6548L24.6875 6.02979ZM24.6875 0.654785C25.3958 0.654785 26 0.925618 26.5 1.46729C27.0417 2.00895 27.3125 2.63395 27.3125 3.34229V19.3423C27.3125 20.0506 27.0417 20.6756 26.5 21.2173C26 21.759 25.3958 22.0298 24.6875 22.0298H3.3125C2.60417 22.0298 1.97917 21.759 1.4375 21.2173C0.9375 20.6756 0.6875 20.0506 0.6875 19.3423V3.34229C0.6875 2.63395 0.9375 2.00895 1.4375 1.46729C1.97917 0.925618 2.60417 0.654785 3.3125 0.654785H24.6875Z" fill="#64C4D2"/>
</svg>
