<svg width="28" height="25" viewBox="0 0 28 25" fill="none" xmlns="http://www.w3.org/2000/svg">
<path d="M9.25 18.75C10.5833 20.0417 12.1667 20.6875 14 20.6875C15.8333 20.6875 17.3958 20.0417 18.6875 18.75C20.0208 17.4167 20.6875 15.8333 20.6875 14C20.6875 12.1667 20.0208 10.6042 18.6875 9.3125C17.3958 7.97917 15.8333 7.3125 14 7.3125C12.1667 7.3125 10.5833 7.97917 9.25 9.3125C7.95833 10.6042 7.3125 12.1667 7.3125 14C7.3125 15.8333 7.95833 17.4167 9.25 18.75ZM10 0.6875H18L20.4375 3.3125H24.6875C25.3958 3.3125 26 3.58333 26.5 4.125C27.0417 4.66667 27.3125 5.29167 27.3125 6V22C27.3125 22.7083 27.0417 23.3333 26.5 23.875C26 24.4167 25.3958 24.6875 24.6875 24.6875H3.3125C2.60417 24.6875 1.97917 24.4167 1.4375 23.875C0.9375 23.3333 0.6875 22.7083 0.6875 22V6C0.6875 5.29167 0.9375 4.66667 1.4375 4.125C1.97917 3.58333 2.60417 3.3125 3.3125 3.3125H7.5625L10 0.6875ZM11 17C10.1667 16.1667 9.75 15.1667 9.75 14C9.75 12.8333 10.1667 11.8333 11 11C11.8333 10.1667 12.8333 9.75 14 9.75C15.1667 9.75 16.1667 10.1667 17 11C17.8333 11.8333 18.25 12.8333 18.25 14C18.25 15.1667 17.8333 16.1667 17 17C16.1667 17.8333 15.1667 18.25 14 18.25C12.8333 18.25 11.8333 17.8333 11 17Z" fill="#64C4D2"/>
</svg>
