<svg width="28" height="26" viewBox="0 0 28 26" fill="none" xmlns="http://www.w3.org/2000/svg">
<path d="M16.6875 5.34229V2.65479H11.3125V5.34229H16.6875ZM24.6875 5.34229C25.4375 5.34229 26.0625 5.61312 26.5625 6.15479C27.0625 6.65479 27.3125 7.27979 27.3125 8.02979V22.6548C27.3125 23.4048 27.0625 24.0506 26.5625 24.5923C26.0625 25.0923 25.4375 25.3423 24.6875 25.3423H3.3125C2.5625 25.3423 1.9375 25.0923 1.4375 24.5923C0.9375 24.0506 0.6875 23.4048 0.6875 22.6548V8.02979C0.6875 7.27979 0.9375 6.65479 1.4375 6.15479C1.9375 5.61312 2.5625 5.34229 3.3125 5.34229H8.6875V2.65479C8.6875 1.90479 8.9375 1.27979 9.4375 0.779785C9.9375 0.279785 10.5625 0.0297852 11.3125 0.0297852H16.6875C17.4375 0.0297852 18.0625 0.279785 18.5625 0.779785C19.0625 1.27979 19.3125 1.90479 19.3125 2.65479V5.34229H24.6875Z" fill="#64C4D2"/>
</svg>
